<?xml version="1.0" encoding="UTF-8" standalone="no"?>
<!-- Created with Inkscape (http://www.inkscape.org/) -->

<svg
   width="189.09029mm"
   height="188.74455mm"
   viewBox="0 0 189.09029 188.74455"
   version="1.1"
   id="svg1"
   xml:space="preserve"
   inkscape:export-filename="bitmap.png"
   inkscape:export-xdpi="96"
   inkscape:export-ydpi="96"
   xmlns:inkscape="http://www.inkscape.org/namespaces/inkscape"
   xmlns:sodipodi="http://sodipodi.sourceforge.net/DTD/sodipodi-0.dtd"
   xmlns="http://www.w3.org/2000/svg"
   xmlns:svg="http://www.w3.org/2000/svg"><sodipodi:namedview
     id="namedview1"
     pagecolor="#ffffff"
     bordercolor="#000000"
     borderopacity="0.25"
     inkscape:showpageshadow="2"
     inkscape:pageopacity="0.0"
     inkscape:pagecheckerboard="0"
     inkscape:deskcolor="#d1d1d1"
     inkscape:document-units="mm"
     inkscape:export-bgcolor="#ffffff00"><inkscape:page
       x="0"
       y="0"
       width="189.09029"
       height="188.74455"
       id="page2"
       margin="0"
       bleed="0" /></sodipodi:namedview><defs
     id="defs1" /><g
     inkscape:groupmode="layer"
     id="layer2"
     inkscape:label="Layer 2"
     transform="translate(-274.29003,-679.8429)"><path
       style="fill:#ffffff;fill-opacity:1"
       d="m 389.60212,866.31493 c -0.0728,0 -0.13229,0.0595 -0.13229,0.13229 0,0.0728 0.0595,0.13229 0.13229,0.13229 0.0728,0 0.1323,-0.0595 0.1323,-0.13229 0,-0.0728 -0.0595,-0.13229 -0.1323,-0.13229 z"
       id="path93-6"
       inkscape:export-filename="coinswap.color.svg"
       inkscape:export-xdpi="96"
       inkscape:export-ydpi="96" /><path
       style="fill:#000000;fill-opacity:1"
       d="m 402.18947,838.68768 c -0.15886,-0.002 -0.65515,0.49413 -1.14929,1.156 -0.0628,0.0842 -0.13711,0.18196 -0.22117,0.29094 h 5.2e-4 5.1e-4 5.2e-4 l 5.2e-4,5.1e-4 h 5.1e-4 l 5.2e-4,5.2e-4 h 5.2e-4 l 5.1e-4,5.2e-4 v 5.1e-4 l 5.2e-4,5.2e-4 v 5.2e-4 5.1e-4 l 5.2e-4,5.2e-4 v 5.2e-4 5.1e-4 l -5.2e-4,5.2e-4 v 5.2e-4 5.1e-4 l -5.2e-4,5.2e-4 -5.1e-4,5.2e-4 -5.2e-4,5.1e-4 -5.2e-4,5.2e-4 c -2.2e-4,1.7e-4 -6.4e-4,7.3e-4 -0.001,10e-4 h -5.2e-4 l -5.1e-4,5.2e-4 h -5.2e-4 l -5.2e-4,5.2e-4 h -5.1e-4 l -5.2e-4,5.2e-4 c -6.3e-4,5e-4 -0.001,6.8e-4 -0.002,0.001 -2.9e-4,1.3e-4 -0.001,9.4e-4 -0.002,10e-4 h -5.1e-4 -5.2e-4 -5.2e-4 c -1.8e-4,-2e-5 -10e-4,3e-5 -0.002,0 l -5.2e-4,-5.1e-4 h -5.1e-4 l -5.2e-4,-5.2e-4 c -0.62324,0.80725 -1.76838,2.22129 -2.73678,3.3755 -1.10519,1.31725 -3.26268,3.50162 -4.79454,4.85449 -1.53187,1.35286 -3.77862,3.14447 -4.99246,3.98115 -1.21384,0.83668 -3.39128,2.11436 -4.83898,2.8391 -1.4477,0.72475 -3.88845,1.73774 -5.42396,2.25155 -1.53551,0.51382 -3.96344,1.11119 -5.39554,1.32705 -1.4321,0.21585 -3.85413,0.39545 -5.3821,0.39945 -2.12791,0.006 -3.02583,0.12166 -3.83646,0.49506 -0.58208,0.26813 -1.374,0.78473 -1.7601,1.14826 -0.38611,0.36354 -0.88047,1.00537 -1.09812,1.42626 -0.21765,0.42088 -0.42052,1.1222 -0.45062,1.55805 -0.0298,0.43586 -0.0418,1.05111 -0.0264,1.36736 0.0154,0.31626 0.33975,0.94541 0.72088,1.39836 0.38114,0.45295 1.05403,1.01039 1.49552,1.23869 0.44149,0.2283 1.35003,0.51638 2.019,0.63975 0.66896,0.12295 2.5421,0.17536 4.16202,0.11576 1.61993,-0.0596 4.12024,-0.34843 5.55625,-0.64183 1.43602,-0.29341 3.62272,-0.87856 4.85965,-1.30018 1.23692,-0.42161 3.43958,-1.30513 4.89479,-1.96318 1.4552,-0.65805 3.69858,-1.80541 4.98523,-2.54972 1.28665,-0.74432 3.01305,-1.79355 3.83645,-2.33216 0.8234,-0.53861 2.62816,-1.81828 4.01061,-2.84375 1.38245,-1.02547 3.40652,-2.57052 4.49792,-3.43338 1.09142,-0.86286 3.14523,-2.63174 4.56406,-3.93051 1.41882,-1.29877 2.57969,-2.45284 2.57969,-2.5647 0,-0.11186 -0.35817,-0.35151 -0.79582,-0.53279 -0.43765,-0.18128 -1.43182,-1.01706 -2.20968,-1.85725 -0.928,-1.00235 -1.65555,-2.12934 -2.11512,-3.27732 -0.38521,-0.96225 -0.70021,-1.91986 -0.70021,-2.12803 0,-0.20816 -0.0982,-0.43905 -0.21808,-0.51315 -0.007,-0.005 -0.0163,-0.007 -0.0269,-0.007 z"
       id="path92-10" /><path
       style="fill:#000000;fill-opacity:1"
       d="m 382.2372,680.84201 c -0.228,0 -0.29031,0.55572 -0.21911,1.96578 0.085,1.68237 6.1e-4,2.18148 -0.58601,3.46283 -0.37697,0.8234 -0.98966,1.85854 -1.36167,2.30064 -0.372,0.4421 -0.64185,0.83481 -0.59945,0.87281 0.0424,0.038 1.56172,0.56354 3.37654,1.16789 1.81482,0.60434 4.29342,1.64105 5.50819,2.30322 1.21477,0.66217 3.29456,1.92988 4.62142,2.8174 1.34903,0.90236 3.58629,2.78793 5.07514,4.27777 1.46438,1.46535 3.33569,3.61613 4.15892,4.77904 0.82324,1.16292 2.16672,3.38196 2.98535,4.93148 0.81862,1.54952 1.83552,3.76839 2.25981,4.93097 0.42429,1.16258 1.07728,3.28797 1.45108,4.72322 0.37381,1.43524 0.86955,4.03841 1.10174,5.78466 0.30489,2.29305 0.38143,4.27744 0.27543,7.14375 -0.0807,2.18281 -0.32949,4.99165 -0.55294,6.242 -0.22345,1.25034 -0.8291,3.74329 -1.34617,5.53971 -0.54912,1.90778 -1.63374,4.70381 -2.60759,6.72259 -0.91702,1.90094 -2.35903,4.46815 -3.20446,5.70508 -0.84544,1.23692 -2.22164,3.08721 -3.05821,4.11137 -0.83656,1.02415 -2.52431,2.81009 -3.75067,3.96875 -1.22636,1.15865 -3.35278,2.90981 -4.72529,3.89176 -1.37252,0.98195 -3.80515,2.43231 -5.40588,3.22306 -1.60073,0.79075 -3.68431,1.74809 -4.6302,2.12751 -0.94588,0.37942 -2.85089,0.97604 -4.23334,1.3255 -1.38245,0.34946 -3.52557,0.75971 -4.7625,0.91209 -1.23693,0.15239 -3.43515,0.40215 -4.88497,0.55449 -1.44982,0.15233 -3.62002,0.51894 -4.82245,0.81494 -1.20243,0.29601 -3.22684,0.95775 -4.49895,1.47071 -1.27211,0.51295 -3.21007,1.41996 -4.30619,2.01538 -1.09612,0.59542 -3.14002,1.95567 -4.54236,3.02307 -1.40234,1.0674 -3.43456,2.8673 -4.51601,3.99924 -1.08145,1.13193 -2.76901,3.18303 -3.75015,4.55838 -0.98114,1.37535 -2.42728,3.81031 -3.21376,5.41104 -0.78648,1.60072 -1.78918,3.99236 -2.22777,5.3144 -0.43859,1.32204 -0.97167,3.23292 -1.18494,4.24677 -0.21328,1.01386 -0.53112,3.41348 -0.70642,5.33249 -0.23911,2.61788 -0.24618,4.20414 -0.0274,6.3531 0.16039,1.57527 0.4843,3.80921 0.71934,4.96404 0.23503,1.15484 0.82873,3.30853 1.3193,4.78576 0.49058,1.47723 1.38948,3.67988 1.99781,4.89479 0.60833,1.21491 1.7257,3.16115 2.48305,4.32532 0.75736,1.16417 2.02101,2.89056 2.8081,3.83645 0.78709,0.94588 2.32546,2.59553 3.41839,3.66593 1.09292,1.0704 3.17814,2.74297 4.63435,3.71657 1.4562,0.9736 3.71946,2.22006 5.02915,2.76986 1.30969,0.54981 3.04925,1.17212 3.86591,1.38286 0.81667,0.21074 2.48354,0.55877 3.70417,0.77359 1.22062,0.21481 3.23153,0.39003 4.46846,0.38964 1.23692,-3.8e-4 3.36998,-0.18239 4.74028,-0.40462 1.37029,-0.22223 3.35638,-0.69429 4.41316,-1.04903 1.05678,-0.35475 2.83707,-1.06791 3.95635,-1.58492 1.11928,-0.517 3.37827,-1.82694 5.01985,-2.91093 2.03785,-1.34566 3.94429,-2.92141 6.01049,-4.96663 1.66441,-1.64752 3.88572,-4.15879 4.93613,-5.58105 1.05042,-1.42225 2.83121,-4.03693 3.95738,-5.80998 1.12617,-1.77304 2.6201,-4.24935 3.3197,-5.50303 0.72617,-1.30129 2.51781,-3.74228 4.17545,-5.68854 1.59697,-1.87502 3.1817,-3.94935 3.52123,-4.61005 0.33952,-0.66069 0.74602,-1.89972 0.90382,-2.75332 0.22895,-1.23849 0.1986,-2.11852 -0.15141,-4.35529 -0.24124,-1.54164 -0.43281,-4.17215 -0.42581,-5.84564 0.009,-2.19468 0.164,-3.60554 0.55397,-5.06274 0.29736,-1.11114 0.97204,-2.87764 1.49965,-3.92534 0.52762,-1.04771 1.31577,-2.40049 1.75131,-3.00654 0.43554,-0.60604 1.3519,-1.68509 2.03606,-2.39727 0.68417,-0.71219 1.83989,-1.74629 2.56831,-2.29805 0.72842,-0.55176 2.27625,-1.47299 3.43959,-2.04742 1.16335,-0.57444 2.89214,-1.29744 3.84214,-1.60662 0.95001,-0.30918 2.72782,-0.73791 3.95066,-0.95291 1.22284,-0.21496 2.2784,-0.33592 2.3456,-0.26872 0.0672,0.0672 -0.0438,0.17488 -0.2465,0.23978 -0.20273,0.0649 -1.02329,0.3202 -1.82366,0.56689 -0.80036,0.24669 -2.63963,1.05922 -4.08709,1.80609 -2.00485,1.03448 -3.1708,1.8709 -4.89479,3.51142 -1.48859,1.41653 -2.69773,2.87528 -3.53312,4.26175 -0.69851,1.1593 -1.56112,2.94536 -1.9172,3.96927 -0.35608,1.02391 -0.75537,2.91639 -0.88728,4.20543 -0.13162,1.28903 -0.18987,3.05789 -0.12867,3.93102 0.0612,0.87312 0.30318,2.83027 0.53795,4.34909 0.25918,1.67679 0.3708,3.49553 0.2837,4.63021 -0.0789,1.02779 -0.39971,2.55105 -0.71313,3.38532 -0.31342,0.83426 -0.99722,2.14396 -1.51929,2.91042 -0.52207,0.76646 -1.84227,2.40035 -2.93367,3.63078 -1.0914,1.23043 -2.4848,3.01637 -3.09645,3.96875 -0.61166,0.95238 -1.41811,2.50558 -1.79214,3.45147 -0.37404,0.94588 -0.75916,2.43418 -0.85576,3.3073 -0.11959,1.0806 -0.0419,2.1596 0.24288,3.37912 0.23008,0.98537 0.65614,2.25822 0.94722,2.82877 0.29107,0.57055 0.95237,1.36023 1.46917,1.75441 0.61713,0.47071 1.3745,0.75819 2.2071,0.83819 1.22773,0.11797 1.29866,0.0856 2.23862,-1.03198 0.5338,-0.63465 2.41178,-2.88034 4.1739,-4.99039 1.76211,-2.11006 4.43706,-5.20899 5.94434,-6.88692 1.50727,-1.67793 3.66809,-3.89246 4.80126,-4.92063 1.13316,-1.02818 3.0725,-2.63169 4.30982,-3.5636 1.23732,-0.93191 2.87847,-2.09682 3.6468,-2.58848 0.76833,-0.49166 1.44995,-0.84034 1.51515,-0.77514 0.0652,0.0652 -0.40009,0.8247 -1.03404,1.68775 -0.63395,0.86304 -3.16246,4.14423 -5.61878,7.29154 -2.45632,3.14732 -6.92358,8.62419 -9.92756,12.17084 -3.0907,3.64901 -6.76628,7.66494 -8.46667,9.2506 -1.65268,1.54118 -4.07655,3.74455 -5.38623,4.89634 -1.30969,1.1518 -3.86953,3.23495 -5.68854,4.62917 -1.81902,1.39421 -4.81193,3.53664 -6.65076,4.76095 -1.83883,1.22432 -3.80336,2.48867 -4.36562,2.80965 -0.56227,0.32098 -0.92034,0.58931 -0.79582,0.59531 0.12451,0.006 0.95795,-0.17333 1.85208,-0.39946 0.89413,-0.22613 2.81637,-0.77536 4.27158,-1.22008 1.45521,-0.44473 4.44955,-1.51533 6.65437,-2.37918 2.20481,-0.86386 5.75659,-2.46149 7.89254,-3.55017 2.13595,-1.08867 5.07825,-2.70111 6.53862,-3.58325 1.46037,-0.88214 3.68364,-2.33018 4.94027,-3.21789 1.25663,-0.88771 3.71336,-2.73917 5.45961,-4.11447 1.74625,-1.3753 5.27152,-4.59723 7.83415,-7.15977 2.56263,-2.56254 5.61478,-5.86834 6.78253,-7.34633 1.16774,-1.47799 2.85168,-3.71196 3.74189,-4.96455 0.89022,-1.25259 2.23408,-3.25809 2.98638,-4.45658 0.7523,-1.19848 1.76765,-2.89356 2.2562,-3.76669 0.48854,-0.87312 1.53013,-2.84717 2.3151,-4.38681 0.78498,-1.53965 2.07183,-4.33762 2.85977,-6.21771 0.78794,-1.88009 1.92045,-4.96621 2.51665,-6.85798 0.59619,-1.89178 1.38359,-4.63021 1.74976,-6.08542 0.36617,-1.45521 0.95902,-4.25318 1.31723,-6.21771 0.35821,-1.96453 0.80657,-5.11968 0.99632,-7.01145 0.18975,-1.89177 0.33443,-6.17802 0.32143,-9.525 -0.0142,-3.65747 -0.19218,-7.58867 -0.44597,-9.85315 -0.23225,-2.07224 -0.78791,-5.58107 -1.23506,-7.79746 -0.44716,-2.21639 -1.22816,-5.50207 -1.7353,-7.30188 -0.50714,-1.79981 -1.45609,-4.74594 -2.10891,-6.54688 -0.65282,-1.80094 -1.81898,-4.6881 -2.59106,-6.41563 -0.77208,-1.72753 -2.27628,-4.73804 -3.34295,-6.69003 -1.06667,-1.95198 -2.65642,-4.6207 -3.5326,-5.93039 -0.87617,-1.30969 -2.8131,-3.9886 -4.30464,-5.95313 -1.49154,-1.96453 -3.51564,-4.46484 -4.49792,-5.55625 -0.98229,-1.0914 -2.86742,-3.04098 -4.18889,-4.33255 -1.32148,-1.29158 -3.53353,-3.32764 -4.91598,-4.52479 -1.38245,-1.19715 -3.76371,-3.12175 -5.29167,-4.27674 -1.52797,-1.15498 -4.38133,-3.09241 -6.3407,-4.30516 -1.95937,-1.21275 -4.99546,-2.95847 -6.74687,-3.87935 -1.75142,-0.92088 -4.60643,-2.28373 -6.34432,-3.02876 -1.7379,-0.74503 -4.68018,-1.87543 -6.53862,-2.51199 -1.85845,-0.63657 -4.72309,-1.51686 -6.3655,-1.95595 -1.64241,-0.4391 -4.63085,-1.10045 -6.64145,-1.46968 -2.0106,-0.36924 -3.79888,-0.67128 -3.97392,-0.67128 z m -12.30829,120.38955 c 1.36145,0.002 3.23878,0.18366 4.17183,0.4036 0.93305,0.21993 2.42134,0.74879 3.3073,1.17512 0.88596,0.42633 2.35654,1.38219 3.26801,2.12442 0.91147,0.74223 2.24763,2.19075 2.96933,3.21841 0.7217,1.02765 1.68525,2.83636 2.14147,4.01939 0.64713,1.67806 0.86037,2.70861 0.96945,4.68808 0.10105,1.83395 0.018,3.08404 -0.2992,4.50981 -0.24137,1.08493 -0.7896,2.71502 -1.21853,3.622 -0.42894,0.90698 -1.12717,2.15155 -1.55185,2.76624 -0.42469,0.61469 -1.29177,1.63852 -1.9265,2.27479 -0.63474,0.63627 -1.77879,1.56247 -2.54248,2.05828 -0.7637,0.4958 -2.3115,1.27222 -3.43958,1.72547 -1.79223,0.72011 -2.43498,0.83618 -5.09374,0.92088 -2.44561,0.0779 -3.43025,-0.008 -5.01727,-0.43719 -1.08597,-0.29383 -2.85843,-1.03905 -3.93878,-1.65623 -1.08036,-0.61718 -2.69208,-1.84833 -3.58169,-2.73575 -0.88961,-0.88743 -2.06735,-2.37571 -2.6169,-3.30729 -0.54956,-0.93159 -1.25275,-2.46785 -1.56269,-3.41374 -0.39711,-1.21188 -0.59853,-2.63617 -0.68213,-4.82245 -0.10157,-2.65726 -0.035,-3.37878 0.4625,-5.02708 0.31949,-1.05849 0.95519,-2.63881 1.41284,-3.51193 0.49723,-0.94864 1.6857,-2.44255 2.95279,-3.71244 1.58604,-1.58955 2.62038,-2.36864 4.10466,-3.09128 1.0914,-0.53136 2.71598,-1.15281 3.61011,-1.38079 0.91446,-0.23316 2.70866,-0.41232 4.10105,-0.41032 z"
       id="path91-6" /><path
       style="fill:#ffffff;fill-opacity:1"
       d="m 370.05086,805.46076 c -1.0455,0 -2.61102,0.18381 -3.47834,0.40825 -0.86731,0.22444 -2.21401,0.78999 -2.9931,1.25677 -0.77909,0.46678 -2.02925,1.50894 -2.77812,2.31614 -0.74888,0.8072 -1.68496,2.13068 -2.07998,2.9409 -0.39503,0.81022 -0.83835,1.99527 -0.98547,2.63343 -0.14712,0.63816 -0.26768,1.93404 -0.26768,2.87993 0,0.94588 0.12358,2.25558 0.2744,2.91042 0.15081,0.65485 0.64105,1.93662 1.08986,2.8484 0.5479,1.1131 1.4013,2.21011 2.59725,3.3383 0.97965,0.92415 2.42631,1.996 3.21479,2.38177 0.78848,0.38576 1.96399,0.80517 2.61225,0.93224 0.64825,0.12708 1.79806,0.24403 2.55488,0.25993 0.75682,0.0159 2.00698,-0.10374 2.77813,-0.26613 0.77115,-0.16239 2.05252,-0.60888 2.84788,-0.99219 0.79535,-0.38331 2.1764,-1.37875 3.06907,-2.21175 1.11531,-1.04075 1.9303,-2.11962 2.60501,-3.44889 0.6326,-1.24632 1.08808,-2.62097 1.28054,-3.86436 0.22617,-1.46105 0.22205,-2.37696 -0.0171,-3.77135 -0.17371,-1.013 -0.62582,-2.46241 -1.0051,-3.22047 -0.37929,-0.75805 -1.14604,-1.98867 -1.70326,-2.73472 -0.55722,-0.74605 -1.74621,-1.84614 -2.64273,-2.44481 -0.89651,-0.59867 -2.40456,-1.32767 -3.35122,-1.62006 -1.04703,-0.3234 -2.46563,-0.53175 -3.622,-0.53175 z"
       id="path90-3" /><path
       style="fill:#ffffff;fill-opacity:1"
       d="m 371.33657,679.88703 c -1.92445,-0.095 -5.3467,-0.0321 -7.7959,0.14366 -2.40109,0.17227 -5.67533,0.49203 -7.27605,0.71004 -1.60073,0.21802 -4.10105,0.63551 -5.55625,0.92811 -1.45521,0.2926 -3.9898,0.88774 -5.63221,1.3224 -1.64241,0.43466 -4.55944,1.32889 -6.48229,1.98747 -1.92285,0.65858 -4.50045,1.6136 -5.72834,2.12184 -1.22789,0.50824 -3.99119,1.8043 -6.14071,2.88044 -2.14951,1.07614 -5.19311,2.74863 -6.76341,3.71657 -1.5703,0.96794 -3.96603,2.53208 -5.3237,3.47576 -1.35767,0.94368 -3.66503,2.6689 -5.12734,3.83387 -1.46232,1.16498 -4.0898,3.50427 -5.83892,5.19813 -1.74911,1.69386 -4.26379,4.27789 -5.58829,5.74229 -1.3245,1.4644 -3.3176,3.85402 -4.42919,5.31079 -1.1116,1.45676 -2.85188,3.8902 -3.86746,5.40742 -1.01558,1.51722 -2.46336,3.83006 -3.21686,5.13974 -0.75349,1.30969 -2.07466,3.81804 -2.93625,5.57382 -0.8616,1.75578 -2.2276,4.88761 -3.03548,6.95978 -0.80788,2.07217 -1.94421,5.33836 -2.52542,7.25847 -0.5812,1.92012 -1.4677,5.51533 -1.96991,7.98918 -0.50221,2.47386 -1.11769,6.28385 -1.36787,8.46666 -0.31653,2.7618 -0.45142,5.98034 -0.44442,10.58334 0.009,5.24914 0.12851,7.48263 0.58084,10.81846 0.3135,2.31196 0.99365,6.18148 1.51154,8.59895 0.51788,2.41746 1.59461,6.35961 2.39262,8.76071 0.79802,2.40109 2.15781,6.0325 3.02152,8.06979 0.86372,2.03729 2.47996,5.37105 3.59203,7.40834 1.11206,2.03729 2.8979,5.04805 3.96875,6.69054 1.07084,1.64249 2.86815,4.20233 3.99355,5.68854 1.1254,1.48621 3.25027,4.07138 4.72219,5.74487 1.47192,1.67349 3.8878,4.20277 5.36867,5.62033 1.48088,1.41755 3.7919,3.49311 5.1356,4.61264 1.3437,1.11952 3.75296,3.00851 5.35368,4.19768 1.60073,1.18918 4.4221,3.07164 6.2699,4.1832 1.84779,1.11156 4.7053,2.71245 6.35,3.55741 1.64471,0.84497 4.06208,1.98847 5.37177,2.54093 1.30969,0.55246 3.81,1.51426 5.55625,2.13734 1.74625,0.62309 4.53647,1.51728 6.20065,1.98747 1.66418,0.47019 4.9384,1.25211 7.27604,1.73736 2.33765,0.48525 4.51227,0.88859 4.83227,0.89659 0.56177,0.014 0.5686,-0.0168 0.19843,-0.90279 -0.21085,-0.50465 -0.38355,-1.72504 -0.38343,-2.71198 1.6e-4,-1.43806 0.15279,-2.11 0.76739,-3.38222 0.42179,-0.87313 1.06912,-1.90193 1.43867,-2.28616 l 0.6718,-0.69867 -2.29909,-0.86041 c -1.2644,-0.4733 -3.132,-1.2761 -4.15065,-1.78439 -1.01864,-0.50829 -2.56645,-1.40525 -3.43958,-1.99316 -0.87312,-0.58791 -2.4316,-1.7541 -3.46284,-2.59157 -1.03125,-0.83747 -2.95228,-2.66118 -4.26899,-4.05247 -1.31671,-1.39129 -3.10801,-3.57218 -3.98064,-4.84673 -0.87264,-1.27455 -2.18949,-3.44879 -2.92643,-4.83123 -0.73693,-1.38245 -1.81488,-3.82323 -2.39572,-5.42396 -0.58083,-1.60073 -1.23768,-3.62478 -1.45934,-4.49791 -0.22166,-0.87312 -0.58057,-2.7186 -0.79789,-4.10105 -0.21732,-1.38245 -0.47261,-3.64464 -0.56741,-5.02708 -0.0957,-1.39568 -0.0354,-3.92559 0.1354,-5.68854 0.1692,-1.74625 0.59058,-4.44913 0.93637,-6.00635 0.34579,-1.55722 1.06814,-4.05753 1.60559,-5.55625 0.53744,-1.49872 1.51158,-3.79187 2.16473,-5.09582 0.65316,-1.30394 1.88296,-3.40477 2.73265,-4.66844 0.8497,-1.26368 2.34919,-3.21573 3.33209,-4.33824 0.9829,-1.12251 2.78569,-2.91665 4.00648,-3.98684 1.22079,-1.07018 3.36882,-2.70657 4.77335,-3.63647 1.40453,-0.9299 3.20869,-2.01761 4.00906,-2.41691 0.80036,-0.39931 2.63681,-1.19762 4.08088,-1.77456 1.44407,-0.57695 3.82532,-1.33455 5.29167,-1.68311 1.46635,-0.34856 4.51145,-0.81906 6.76703,-1.04593 2.25557,-0.22687 5.29166,-0.7074 6.74687,-1.06763 1.45521,-0.36023 3.59833,-1.02011 4.7625,-1.46658 1.16417,-0.44648 3.09678,-1.34025 4.29483,-1.98592 1.19806,-0.64568 3.16259,-1.87907 4.36563,-2.74092 1.20303,-0.86184 3.33726,-2.73752 4.74286,-4.16822 1.4056,-1.43071 3.40157,-3.77815 4.43539,-5.21674 1.03383,-1.4386 2.64596,-4.17704 3.58272,-6.08542 0.93677,-1.90838 2.12542,-4.87384 2.64119,-6.58977 0.51576,-1.71593 1.13018,-4.57343 1.36529,-6.35 0.30547,-2.30857 0.38543,-4.28709 0.2806,-6.93446 -0.0807,-2.03729 -0.32238,-4.65667 -0.53743,-5.82084 -0.21506,-1.16416 -0.64671,-3.04248 -0.95912,-4.17442 -0.31241,-1.13194 -0.92041,-2.9134 -1.35134,-3.95841 -0.43092,-1.04501 -1.30278,-2.87504 -1.93683,-4.06694 -0.63406,-1.19191 -1.83766,-3.1019 -2.67477,-4.24419 -0.8371,-1.14229 -2.57495,-3.1145 -3.8623,-4.38267 -1.28735,-1.26818 -3.38719,-3.00924 -4.66586,-3.86902 -1.27866,-0.85977 -3.15548,-1.98044 -4.17081,-2.49029 -1.01534,-0.50986 -2.96791,-1.29882 -4.33927,-1.75338 -1.37136,-0.45456 -3.51449,-1.03007 -4.7625,-1.27899 -1.58145,-0.31542 -3.59214,-0.45382 -6.63473,-0.45682 -3.20009,-0.003 -4.96606,0.1219 -6.61459,0.46974 -1.23693,0.261 -3.28602,0.82048 -4.55373,1.24282 -1.2677,0.42233 -3.1727,1.20369 -4.23333,1.73633 -1.06063,0.53264 -3.00012,1.69523 -4.30981,2.58382 -1.30969,0.8886 -3.58859,2.83181 -5.06429,4.31808 -1.47569,1.48628 -3.51393,3.80989 -4.52944,5.16351 -1.0155,1.35362 -2.34003,3.27001 -2.94349,4.25866 -0.60346,0.98866 -2.03653,3.66756 -3.1843,5.95312 -1.14777,2.28556 -2.54497,4.77051 -3.10472,5.52214 -0.55976,0.75164 -1.95889,2.47414 -3.10938,3.82819 -1.15049,1.35404 -2.38266,3.09781 -2.73833,3.8747 -0.35567,0.77689 -0.70906,2.09733 -0.78496,2.93419 -0.0822,0.90645 0.0544,2.63833 0.33796,4.28398 0.26433,1.53422 0.46999,3.99727 0.46199,5.54023 -0.009,1.73588 -0.18955,3.47295 -0.48163,4.63021 -0.2571,1.01864 -0.86011,2.78501 -1.34048,3.92534 -0.48037,1.14033 -1.5373,2.95496 -2.34818,4.03231 -0.81089,1.07736 -2.33343,2.66789 -3.38377,3.53467 -1.05033,0.86678 -2.92377,2.1072 -4.16306,2.75642 -1.23928,0.64921 -3.08321,1.43391 -4.09742,1.74356 -1.01422,0.30966 -2.79857,0.72868 -3.96565,0.93121 -1.16709,0.20254 -2.15567,0.33462 -2.19677,0.29352 -0.0411,-0.0411 0.99267,-0.4567 2.29754,-0.92346 1.30487,-0.46677 3.34362,-1.43228 4.53047,-2.1456 1.18685,-0.71332 2.81751,-1.86006 3.62355,-2.54868 0.80604,-0.68861 1.98564,-1.91369 2.62155,-2.7218 0.63591,-0.80811 1.62543,-2.36888 2.19883,-3.46852 0.57339,-1.09964 1.31066,-2.94511 1.63814,-4.10104 0.47992,-1.69395 0.59425,-2.76899 0.59325,-5.54127 -0.001,-2.31253 -0.15895,-4.1765 -0.48163,-5.68854 -0.34325,-1.60877 -0.44159,-2.88914 -0.34519,-4.49792 0.0837,-1.39783 0.3612,-2.84974 0.73328,-3.83645 0.32925,-0.87312 1.07634,-2.29449 1.66037,-3.15847 0.58402,-0.86397 1.85176,-2.42246 2.81688,-3.46335 0.96513,-1.04089 2.2173,-2.58922 2.78278,-3.44114 0.56547,-0.85193 1.36316,-2.41175 1.7725,-3.46593 0.40935,-1.05419 0.85068,-2.66844 0.98082,-3.58738 0.13446,-0.94923 0.13857,-2.29014 0.01,-3.10472 -0.12466,-0.78859 -0.53513,-2.06499 -0.9126,-2.83652 -0.37748,-0.77153 -1.17671,-1.82271 -1.77612,-2.33578 -0.74163,-0.63481 -1.35338,-0.93276 -1.91461,-0.93276 -0.60997,0 -1.06885,0.25836 -1.76217,0.99219 -0.51557,0.5457 -1.99521,2.30188 -3.28817,3.90261 -1.29297,1.60072 -3.49989,4.2201 -4.90409,5.82083 -1.40419,1.60073 -4.02666,4.34477 -5.82755,6.09782 -1.80088,1.75305 -4.10767,3.84666 -5.12631,4.65243 -1.01865,0.80577 -2.71664,2.03888 -3.77341,2.7404 -1.05677,0.70152 -1.98296,1.21426 -2.05776,1.13946 -0.0748,-0.0748 1.02786,-1.65103 2.4505,-3.50314 1.42265,-1.85211 4.55212,-5.82771 6.9541,-8.8346 2.40199,-3.0069 5.30917,-6.59846 6.46059,-7.98091 1.15143,-1.38245 3.06967,-3.64464 4.26227,-5.02709 1.19259,-1.38244 2.39706,-2.71712 2.67684,-2.96622 0.27978,-0.24911 1.09018,-0.71035 1.80092,-1.02475 0.99438,-0.43984 1.60893,-0.53904 2.66599,-0.42994 0.75555,0.078 1.9581,0.43809 2.67219,0.79995 0.71408,0.36185 1.8698,1.2686 2.56832,2.01538 0.69852,0.74677 1.5409,1.97952 1.87223,2.73885 0.33132,0.75934 0.7129,1.65682 0.8475,1.99471 0.22823,0.57293 0.38684,0.43106 2.35541,-2.10065 1.16101,-1.49313 3.3016,-3.913 4.75681,-5.37797 1.4552,-1.46497 3.7174,-3.47175 5.02709,-4.45915 1.30969,-0.98741 3.69093,-2.43163 5.29166,-3.20963 1.60073,-0.77801 3.86292,-1.72499 5.02709,-2.10426 1.16416,-0.37928 3.18822,-0.92924 4.49791,-1.22215 1.36029,-0.30423 3.9127,-0.59856 5.95313,-0.68626 1.96453,-0.0844 4.21118,-0.3289 4.99246,-0.54364 0.78128,-0.21473 1.86766,-0.67293 2.41432,-1.01802 0.54666,-0.34509 1.24628,-0.94859 1.55495,-1.34101 0.30868,-0.39241 0.68438,-1.16978 0.83457,-1.72754 0.20905,-0.77632 0.18488,-1.22464 -0.10232,-1.91203 -0.26201,-0.62706 -0.72568,-1.06771 -1.53789,-1.46089 -0.92084,-0.44577 -1.87762,-0.59824 -4.59352,-0.73226 z m -3.29799,33.89768 c 2.68667,-0.002 3.65485,0.10827 5.15938,0.58497 1.01865,0.32276 2.614,1.03713 3.545,1.5875 0.931,0.55037 2.36652,1.66209 3.1905,2.47065 0.82397,0.80857 1.93783,2.1934 2.47479,3.07733 0.53696,0.88392 1.29596,2.42496 1.68672,3.4246 0.63644,1.6281 0.99849,2.24779 1.01389,5.32888 0.0131,2.62504 -0.37994,3.69615 -0.73691,4.75474 -0.25726,0.76288 -0.84866,2.19163 -1.31413,3.175 -0.62623,1.32297 -1.43353,2.37519 -3.1042,4.04627 -1.71084,1.71126 -2.73848,2.49364 -4.24212,3.22926 -1.09141,0.53394 -2.69422,1.1549 -3.56154,1.37976 -0.91651,0.23761 -2.63406,0.40281 -4.10104,0.39481 -1.81167,-0.0102 -3.08397,-0.18145 -4.50825,-0.60617 -1.0914,-0.32545 -2.74311,-0.99779 -3.67007,-1.49448 -0.94463,-0.50616 -2.51791,-1.72825 -3.58014,-2.78019 -1.33668,-1.32373 -2.21451,-2.49698 -2.97863,-3.98115 -0.59586,-1.15736 -1.21627,-2.52099 -1.37873,-3.03031 -0.16246,-0.50932 -0.41323,-1.85532 -0.55707,-2.99103 -0.17787,-1.40449 -0.17143,-2.71078 0.0196,-4.08451 0.15451,-1.11085 0.57462,-2.80094 0.93379,-3.75584 0.35918,-0.95491 1.142,-2.48699 1.73943,-3.40444 0.59742,-0.91744 1.79161,-2.30663 2.6541,-3.08715 0.8625,-0.78051 2.36251,-1.83091 3.33313,-2.33423 0.97063,-0.50331 2.41959,-1.1373 3.21996,-1.4087 1.11171,-0.37699 2.23588,-0.49357 4.7625,-0.49557 z"
       id="path89-2" /><path
       style="fill:#000000;fill-opacity:1"
       d="m 368.26389,717.92709 c -0.9641,-0.0105 -1.87839,0.0945 -2.93109,0.32866 -1.17368,0.26112 -2.62971,0.82571 -3.54552,1.37459 -0.85472,0.51228 -2.06729,1.43008 -2.69492,2.03967 -0.6634,0.64432 -1.6006,2.03236 -2.23811,3.31505 -1.002,2.01603 -1.10578,2.41994 -1.20458,4.67981 -0.0867,1.98139 0.003,2.83769 0.44907,4.30723 0.30645,1.00889 1.04128,2.55971 1.63298,3.44579 0.59169,0.88608 1.67599,2.08906 2.40967,2.67322 0.73368,0.58417 1.97097,1.36328 2.7497,1.73168 0.77874,0.3684 1.86888,0.77621 2.42208,0.9064 0.5532,0.13019 1.77952,0.24573 2.72541,0.25683 0.94588,0.0111 2.24238,-0.10032 2.88096,-0.24753 0.63858,-0.14722 1.82921,-0.58143 2.64584,-0.96479 0.93163,-0.43734 2.18023,-1.39458 3.35173,-2.56987 1.06102,-1.06446 2.12751,-2.43515 2.47013,-3.175 0.33159,-0.71606 0.79398,-2.1836 1.02785,-3.2613 0.357,-1.64512 0.37637,-2.29642 0.11937,-4.0597 -0.19726,-1.35338 -0.61284,-2.71604 -1.1684,-3.83233 -0.47416,-0.95274 -1.40104,-2.28034 -2.05983,-2.95021 -0.6588,-0.66987 -1.79316,-1.59493 -2.52077,-2.05517 -0.7276,-0.46024 -1.83689,-1.03807 -2.46497,-1.28416 -0.62808,-0.24609 -2.00924,-0.5207 -3.06906,-0.6103 -0.3395,-0.0287 -0.66617,-0.0451 -0.98754,-0.0486 z"
       id="path8-3-0" /></g></svg>
